<?xml version="1.0" encoding="UTF-8"?>
<!DOCTYPE svg PUBLIC "-//W3C//DTD SVG 1.1//EN" "http://www.w3.org/Graphics/SVG/1.1/DTD/svg11.dtd">
<!-- Creator: CorelDRAW -->
<svg xmlns="http://www.w3.org/2000/svg" xml:space="preserve" width="2.66666in" height="2.66666in" version="1.1" style="shape-rendering:geometricPrecision; text-rendering:geometricPrecision; image-rendering:optimizeQuality; fill-rule:evenodd; clip-rule:evenodd"
viewBox="0 0 2666.66 2666.66"
 xmlns:xlink="http://www.w3.org/1999/xlink"
 xmlns:xodm="http://www.corel.com/coreldraw/odm/2003">
 <defs>
  <style type="text/css">
   <![CDATA[
    .fil1 {fill:#FEFEFE}
    .fil0 {fill:#05AAC0}
   ]]>
  </style>
 </defs>
 <g id="Layer_x0020_1">
  <metadata id="CorelCorpID_0Corel-Layer"/>
  <circle class="fil0" cx="1333.33" cy="1333.33" r="1333.33"/>
  <path class="fil1" d="M1640.28 2186.58l-1063.11 0c-11.04,0 -20,-8.97 -20,-20l0 -1666.51c0,-11.04 8.96,-20 20,-20l1063.12 0c11.04,0 20,8.96 20,20l0 599.02 -286.8 496.75c-3.54,6.13 -5.72,12.67 -6.63,19.28l-37.08 266.74c-6.59,47.36 48.09,78.61 85.59,49.39l211.23 -164.53c14.22,-10.75 23.74,-32.1 34.19,-50.19 0,149.96 -0.5,300.04 -0.5,450.04 0.02,11.04 -8.96,20 -20,20zm-161.67 -1265.94l-739.79 0c-11.04,0 -20,-8.96 -20,-20l0 -218.57c0,-11.04 8.96,-20 20,-20l739.79 0c11.04,0 20,8.96 20,20l0 218.57c0,11.05 -8.95,19.99 -20,19.99zm-719.79 -40l699.78 0 0 -178.57 -699.78 0 0 178.57zm354.53 300.5l-378.95 0c-26.33,0 -26.33,-40 0,-40l378.95 0c26.32,0 26.33,40 0,40zm165.59 216.37l-544.54 0c-26.32,0 -26.32,-40 0,-40l544.55 0c26.31,0 26.33,40 -0.01,40zm-147.92 216.37l-396.63 0c-26.32,0 -26.32,-40 0,-40l396.63 0c26.32,0 26.32,40 0,40zm79.49 216.37l-476.11 0c-26.32,0 -26.32,-40 0,-40l476.11 0c26.32,0 26.32,40 0,40zm239.24 216.37l-715.35 0c-26.32,0 -26.32,-40 0,-40l715.35 0c26.33,0 26.33,40 0,40z"/>
  <path class="fil1" d="M1595.01 1743.74c-12.5,0 -162.26,-90.6 -185.34,-103.92 -9.53,-5.5 -12.87,-17.74 -7.31,-27.31l373.67 -647.22c6.08,10.99 15.21,20.29 26.64,26.88 30.19,17.41 59.94,35.58 90.06,53.13l88.33 49.85 -368.7 638.6c-3.73,6.41 -10.45,10.01 -17.35,10.01zm240.95 -882.27l7.51 -13.02c53.38,-92.43 193.83,-75.67 222,29.28 9.35,34.86 3.22,65.63 -14.41,96.17l-178.43 -102.98c-11.9,-6.87 -24.49,-9.79 -36.67,-9.44z"/>
  <path class="fil1" d="M1382.6 1909.2c-11.98,0 -21.49,-10.65 -19.82,-22.75l30.26 -217.74c41.93,24.19 135.24,81.94 175.8,100.75l-173.96 135.5c-3.59,2.81 -7.94,4.24 -12.28,4.24z"/>
  <path class="fil1" d="M2053.33 1098.37l-143.82 -81.88c-30.15,-17.56 -59.99,-35.79 -90.19,-53.2 -41.74,-24.07 -5.27,-87.71 36.65,-63.5l265.78 153.42c17.51,10.11 23.53,32.58 13.42,50.1l-158.37 274.3c-6.57,11.37 -18.7,18.32 -31.79,18.32 -28.08,0 -45.77,-30.68 -31.73,-55l140.06 -242.56z"/>
 </g>
</svg>
